<svg id="picto-profil-off" xmlns="http://www.w3.org/2000/svg" viewBox="0 0 36 36"><defs><style>.cls-1{fill:#e10203;}</style></defs><title>profil-deconnecte</title><path d="M18,1.09A16.91,16.91,0,1,1,1.09,18,16.93,16.93,0,0,1,18,1.09m0-1A17.91,17.91,0,1,0,35.91,18,17.91,17.91,0,0,0,18,.09Z"/><path class="cls-1" d="M18,9.45a2.79,2.79,0,0,1,2.82,3.11c0,2-1.27,3.7-2.82,3.7s-2.82-1.66-2.82-3.7A2.79,2.79,0,0,1,18,9.45m0-1a3.78,3.78,0,0,0-3.82,4.11c0,2.6,1.71,4.7,3.82,4.7s3.82-2.1,3.82-4.7A3.78,3.78,0,0,0,18,8.45Z"/><path class="cls-1" d="M18.11,20.28c3.91,0,6,1.25,6.3,3.7,0,.08,0,.36,0,.65A11.35,11.35,0,0,1,18,26.55a11,11,0,0,1-6.43-1.92c0-.28,0-.56,0-.62.27-2.48,2.4-3.73,6.34-3.73h.19m0-1h-.22c-3.8,0-6.93,1.21-7.3,4.62,0,.09,0,.83,0,1.23h0A11.89,11.89,0,0,0,18,27.55h0a12.17,12.17,0,0,0,7.44-2.42c0-.4,0-1.14,0-1.23-.37-3.41-3.5-4.62-7.3-4.62Z"/></svg>